<svg xmlns="http://www.w3.org/2000/svg" viewBox="0 0 243.23 259.54"><defs><style>.cls-1{fill:#2b2b2b;}</style></defs><g id="Layer_46" data-name="Layer 46"><path class="cls-1" d="M240.93,128.32c0,36.89-11.8,67.94-35.06,92.27s-51.78,36.66-84.8,36.66c-33.39,0-61.83-12-84.53-35.75S2.29,166.6,2.29,128.87c0-38.55,13.31-70.43,39.55-94.76C64.61,13,92.24,2.3,124,2.3c31.45,0,59.1,12.12,82.18,36S240.93,92.52,240.93,128.32Zm-39.46,4.9c0-42.09-8.42-73.95-25.05-94.71-13.44-16.6-32.24-25-55.9-25-22.21,0-40.28,8.36-53.71,24.85-16.63,20.38-25.06,50.6-25.06,89.81,0,40.17,8.73,71.54,26,93.26,13.31,16.61,31.14,25,53,25,23.28,0,42.79-9.21,58-27.37S201.47,172.07,201.47,133.22Z"/><path class="cls-1" d="M193.94,182.7q5.46-21,5.49-49.48c0-21.57-2.23-40.4-6.65-56.37h-3.05q-7.18,0-10.16,4.29-1.81,2.64-1.81,12.06v73.15q0,10.32,2.31,12.88,3.06,3.47,9.66,3.47h4.21ZM51.63,185.76c4.21,13.32,10.1,24.81,17.68,34.36,12.9,16.1,30.19,24.26,51.4,24.26,22.65,0,41.62-9,56.39-26.64,7-8.32,12.3-19,16-32H146.05V182.7h4q7.19,0,10.08-4.29,1.82-2.64,1.81-12.06V91.54l-43.18,94.22H116L72.73,91.54v74.81q0,10.32,2.23,12.88,3.06,3.47,9.66,3.47h4v3.06ZM68.4,39.62C60.81,48.93,55,60.35,50.87,73.79H81.32l40.62,87.61,40-87.61h30c-4.06-13.5-9.76-24.86-17.08-34-13-16.1-31.29-24.27-54.3-24.27C99,15.53,81.42,23.64,68.4,39.62ZM43.8,128.14q0,30.88,6.91,54.56h2.86q7.11,0,10.08-4.29,1.82-2.64,1.81-12.06V93.2q0-7.44-1.65-10.74a9.13,9.13,0,0,0-4.25-4c-2-1-5.21-1.58-9.58-1.61C45.87,91.64,43.8,108.78,43.8,128.14ZM67.71,221.4c-17.23-21.72-26-53.09-26-93.26,0-39.21,8.43-69.43,25.06-89.81,13.43-16.49,31.5-24.85,53.71-24.85,23.66,0,42.46,8.43,55.9,25,16.63,20.76,25.05,52.62,25.05,94.71,0,38.85-7.67,67.73-22.8,85.84s-34.68,27.37-58,27.37C98.85,246.43,81,238,67.71,221.4Z"/><path class="cls-1" d="M41.84,34.11C15.6,58.44,2.29,90.32,2.29,128.87c0,37.73,11.53,68.9,34.25,92.63s51.14,35.75,84.53,35.75c33,0,61.55-12.34,84.8-36.66s35.06-55.38,35.06-92.27c0-35.8-11.7-66.08-34.78-90S155.42,2.3,124,2.3C92.24,2.3,64.61,13,41.84,34.11Zm-6.78,188.8C12,198.79.25,167.15.25,128.87c0-39.14,13.52-71.53,40.2-96.26C63.61,11.14,91.71.25,124,.25c32,0,60.18,12.33,83.65,36.65S243,92,243,128.32c0,37.44-12,69-35.63,93.69s-52.68,37.29-86.28,37.29C87.1,259.3,58.16,247.05,35.06,222.91Z"/></g></svg>