<svg xmlns="http://www.w3.org/2000/svg" viewBox="0 0 1584.67 288.08"><defs><style>.cls-1{fill:#fff;}</style></defs><g id="Layer_12" data-name="Layer 12"><path class="cls-1" d="M425.69,180.16H350.84l-13.12,30.51q-4.85,11.27-4.84,16.82,0,4.42,4.2,7.77t18.18,4.35v5.28H294.38v-5.28q12.12-2.13,15.68-5.56,7.28-6.84,16.11-27.8l68-159.12h5L466.47,208q8.13,19.39,14.76,25.16t18.46,6.49v5.28H423.41v-5.28Q435,239,439,235.76a9.92,9.92,0,0,0,4.07-8q0-6.27-5.71-19.82Zm-4-10.56L388.91,91.47,355.26,169.6Z"/><path class="cls-1" d="M637.85,146.22q20.1,4.28,30.08,13.69A42.53,42.53,0,0,1,681.76,192q0,14.4-9.12,27.59a52.25,52.25,0,0,1-25,19.25q-15.9,6.06-48.55,6.06H507.82v-5.28h7.27q12.12,0,17.39-7.7,3.28-5,3.28-21.24V85.77q0-18-4.13-22.67-5.57-6.27-16.54-6.27h-7.27V51.55h83.55q23.39,0,37.5,3.42,21.39,5.13,32.65,18.18a44.58,44.58,0,0,1,11.26,30,41.53,41.53,0,0,1-8.84,26Q655.1,140.67,637.85,146.22Zm-74.71-7.7a106.06,106.06,0,0,0,12.05,1.5q6.76.49,14.9.5,20.8,0,31.29-4.49a33.57,33.57,0,0,0,16-13.76A38.62,38.62,0,0,0,643,102q0-17-13.83-28.94t-40.35-12a96.85,96.85,0,0,0-25.66,3.14Zm0,92.39a143.44,143.44,0,0,0,32.65,3.85q25.8,0,39.35-11.62t13.55-28.73a42.12,42.12,0,0,0-6.14-21.67q-6.12-10.41-20-16.39t-34.21-6q-8.85,0-15.12.28a77.91,77.91,0,0,0-10.12,1Z"/><path class="cls-1" d="M804.52,47.13q37.65,0,65.23,28.59t27.59,71.36q0,44.05-27.8,73.14t-67.3,29.09q-39.91,0-67.08-28.38T708,147.51q0-46.06,31.37-75.14Q766.6,47.13,804.52,47.13Zm-2.71,10.41q-25.95,0-41.63,19.25-19.53,24-19.53,70.15,0,47.33,20.24,72.85,15.54,19.4,41.07,19.39,27.22,0,45-21.24t17.75-67q0-49.62-19.53-74Q829.47,57.54,801.81,57.54Z"/><path class="cls-1" d="M1047.9,56.83V51.55h68.44v5.28h-7.27a19.63,19.63,0,0,0-17.54,9.55q-3,4.43-3,20.53v78.42q0,29.08-5.78,45.12T1060.09,238q-16.89,11.47-46,11.48-31.65,0-48.05-11A59.52,59.52,0,0,1,942.82,209q-4.56-12.69-4.56-47.62V85.77q0-17.82-4.92-23.38t-15.89-5.56h-7.28V51.55h83.55v5.28h-7.41q-12,0-17.11,7.55-3.57,5.13-3.56,21.39V170a187,187,0,0,0,2.06,25.81q2.07,14.53,7.49,22.67a40.59,40.59,0,0,0,15.61,13.4q10.2,5.28,25,5.28,19,0,33.94-8.27t20.46-21.18q5.49-12.9,5.49-43.7V85.77q0-18.1-4-22.67-5.55-6.27-16.53-6.27Z"/><path class="cls-1" d="M1288.43,51.55l2.14,45.34h-5.42q-1.56-12-4.27-17.11a28.68,28.68,0,0,0-11.77-12.19q-7.33-3.91-19.32-3.92h-27.23V211.38q0,17.82,3.85,22.24,5.41,6,16.68,6h6.7v5.28h-82v-5.28h6.85q12.25,0,17.39-7.41,3.14-4.56,3.14-20.82V63.67H1172q-13.54,0-19.25,2-7.41,2.7-12.69,10.4t-6.27,20.82h-5.42l2.28-45.34Z"/></g></svg>