<svg id="Layer_1" data-name="Layer 1" xmlns="http://www.w3.org/2000/svg" viewBox="0 0 70.87 61.69"><defs><style>.cls-1{fill:#fff;}</style></defs><g id="Layer_2" data-name="Layer 2"><path class="cls-1" d="M67.79,6.94c.92-.51,1.81-1.06,2.7-1.61a1.73,1.73,0,0,0,.38-.46c-.17-.09-.32-.26-.5-.28-1.06-.16-2.13-.32-3.19-.42a.69.69,0,0,1-.72-.65c-.21-1-.47-2-.73-3,0-.18-.22-.31-.33-.47-.15.13-.35.22-.43.38-.47.94-.88,1.91-1.37,2.83a1,1,0,0,1-.75.46c-1.08,0-2.15-.14-3.42-.23,0,0-.32.08-.33.17a.87.87,0,0,0,.24.57c.76.74,1.56,1.41,2.29,2.16a1,1,0,0,1,.18.85c-.3.87-.71,1.69-1,2.55a5.7,5.7,0,0,0-.18.95,5.16,5.16,0,0,0,.92-.23c.82-.41,1.63-.85,2.42-1.32a.74.74,0,0,1,1,.12c.76.69,1.54,1.35,2.33,2a2,2,0,0,0,.61.22,2.17,2.17,0,0,0,.09-.65c-.18-1-.36-2-.59-3a.67.67,0,0,1,.39-.87"/><path class="cls-1" d="M23.3,14C9.59,14.55-.66,25.55,0,39.15A23.74,23.74,0,0,0,25.69,61.62,23.87,23.87,0,0,0,23.3,14M16,32.37A4.67,4.67,0,1,1,16,23a4.72,4.72,0,0,1,4.67,4.74A4.66,4.66,0,0,1,16,32.37"/><path class="cls-1" d="M59.06,6.7c-.5-.3-.92-.83-1.45-1-1.6-.39-3.26-.54-4.84-1a38.72,38.72,0,0,1-8.58-3.69,7,7,0,0,0-9.52,2.36c-.74,1.17-.73,1.25-1.44,2.51-.2,0,3.55,1.28,3.67,1.24.51-.88.31-.56.79-1.37,1.15-1.95,2.8-2.39,4.82-1.33,1.48.77,3,1.56,4.51,2.23a28.47,28.47,0,0,0,10.1,2.77c1.52.08,1.52,0,2.1-1.32.23-.52.58-1-.16-1.47"/><path class="cls-1" d="M32.58,7.09l-.8-.2a19.76,19.76,0,0,0-5.92-.7c-1.17.06-2.12.35-2.46,1.7s-.83,2.67-1.27,4.09a26.08,26.08,0,0,1,18,5.71c.46-1.53.8-3,1.32-4.33a1.64,1.64,0,0,0-.56-2.08,34.67,34.67,0,0,0-2.89-2,19.16,19.16,0,0,0-1.81-.92Z"/></g></svg>