<?xml version="1.0" encoding="utf-8"?>
<!-- Generator: Adobe Illustrator 25.2.0, SVG Export Plug-In . SVG Version: 6.00 Build 0)  -->
<svg version="1.1" id="Layer_1" xmlns="http://www.w3.org/2000/svg" xmlns:xlink="http://www.w3.org/1999/xlink" x="0px" y="0px"
	 viewBox="0 0 512 512" style="enable-background:new 0 0 512 512;" xml:space="preserve">
<style type="text/css">
	.st0{fill:#FFF501;}
</style>
<g>
	<path class="st0" d="M57.2,226.9c-2.6,0-5.3-1-7.3-3c-4.2-4-4.3-10.7-0.3-14.9L248.4,3.2c4-4.2,10.7-4.3,14.9-0.3
		c4.2,4,4.3,10.7,0.3,14.9L64.8,223.6C62.7,225.8,59.9,226.9,57.2,226.9z"/>
	<path class="st0" d="M256,512c-5.8,0-10.5-4.7-10.5-10.5v-491c0-4.3,2.6-8.2,6.6-9.8s8.5-0.6,11.5,2.4L462.4,209
		c4,4.2,3.9,10.9-0.3,14.9c-4.2,4-10.9,3.9-14.9-0.3l-180.7-187v464.8C266.5,507.3,261.8,512,256,512z"/>
</g>
</svg>
