<svg xmlns="http://www.w3.org/2000/svg" viewBox="0 0 243.23 259.54"><defs><style>.cls-1{fill:#fff;}</style></defs><g id="Layer_46" data-name="Layer 46"><path class="cls-1" d="M207.62,36.9C231.08,61.22,243,92,243,128.32c0,37.44-12,69-35.63,93.69s-52.68,37.29-86.28,37.29c-34,0-62.91-12.25-86-36.39S.25,167.15.25,128.87c0-39.14,13.52-71.53,40.2-96.26C63.61,11.14,91.71.25,124,.25,156,.25,184.15,12.58,207.62,36.9Zm33.31,91.42c0-35.8-11.7-66.08-34.78-90S155.42,2.3,124,2.3C92.24,2.3,64.61,13,41.84,34.11,15.6,58.44,2.29,90.32,2.29,128.87c0,37.73,11.53,68.9,34.25,92.63s51.14,35.75,84.53,35.75c33,0,61.55-12.34,84.8-36.66S240.93,165.21,240.93,128.32Z"/><path class="cls-1" d="M206.15,38.33c23.08,23.91,34.78,54.19,34.78,90,0,36.89-11.8,67.94-35.06,92.27s-51.78,36.66-84.8,36.66c-33.39,0-61.83-12-84.53-35.75S2.29,166.6,2.29,128.87c0-38.55,13.31-70.43,39.55-94.76C64.61,13,92.24,2.3,124,2.3,155.42,2.3,183.07,14.42,206.15,38.33ZM178.67,219.06c15.13-18.11,22.8-47,22.8-85.84,0-42.09-8.42-73.95-25.05-94.71-13.44-16.6-32.24-25-55.9-25-22.21,0-40.28,8.36-53.71,24.85-16.63,20.38-25.06,50.6-25.06,89.81,0,40.17,8.73,71.54,26,93.26,13.31,16.61,31.14,25,53,25C144,246.43,163.5,237.22,178.67,219.06Z"/><path class="cls-1" d="M201.47,133.22c0,38.85-7.67,67.73-22.8,85.84s-34.68,27.37-58,27.37c-21.86,0-39.69-8.42-53-25-17.23-21.72-26-53.09-26-93.26,0-39.21,8.43-69.43,25.06-89.81,13.43-16.49,31.5-24.85,53.71-24.85,23.66,0,42.46,8.43,55.9,25C193.05,59.27,201.47,91.13,201.47,133.22Zm-7.53,49.48q5.46-21,5.49-49.48c0-21.57-2.23-40.4-6.65-56.37h-3.05q-7.18,0-10.16,4.29-1.81,2.64-1.81,12.06v73.15q0,10.32,2.31,12.88,3.06,3.47,9.66,3.47h4.21Zm-.82,3.06H146.05V182.7h4q7.19,0,10.08-4.29,1.82-2.64,1.81-12.06V91.54l-43.18,94.22H116L72.73,91.54v74.81q0,10.32,2.23,12.88,3.06,3.47,9.66,3.47h4v3.06H51.63c4.21,13.32,10.1,24.81,17.68,34.36,12.9,16.1,30.19,24.26,51.4,24.26,22.65,0,41.62-9,56.39-26.64C184.06,209.42,189.4,198.73,193.12,185.76Zm-31.22-112h30c-4.06-13.5-9.76-24.86-17.08-34-13-16.1-31.29-24.27-54.3-24.27-21.56,0-39.1,8.11-52.12,24.09C60.81,48.93,55,60.35,50.87,73.79H81.32l40.62,87.61ZM65.46,166.35V93.2q0-7.44-1.65-10.74a9.13,9.13,0,0,0-4.25-4c-2-1-5.21-1.58-9.58-1.61-4.11,14.79-6.18,31.93-6.18,51.29q0,30.88,6.91,54.56h2.86q7.11,0,10.08-4.29Q65.47,175.77,65.46,166.35Z"/></g></svg>