<svg xmlns="http://www.w3.org/2000/svg" viewBox="0 0 1584.67 288.08"><defs><style>.cls-1{fill:#fff;}</style></defs><g id="Layer_12" data-name="Layer 12"><path class="cls-1" d="M523.28,257.48h3.55v13.35A19.31,19.31,0,0,1,514,275.28c-10.65,0-18.45-7.55-18.45-17.8s7.8-17.81,18.5-17.81c5.3,0,9.9,1.71,13,5.06l-2.3,2.35a14.27,14.27,0,0,0-10.55-4.1c-8.65,0-15,6.15-15,14.5s6.35,14.5,14.95,14.5a15.15,15.15,0,0,0,9.15-2.7Z"/><path class="cls-1" d="M561.18,275l-8-11.25a24.92,24.92,0,0,1-2.8.15H541V275h-3.7V240h13.1c8.9,0,14.3,4.5,14.3,12a10.85,10.85,0,0,1-8,11l8.55,12Zm-.2-23c0-5.6-3.7-8.8-10.7-8.8H541v17.55h9.3C557.28,260.73,561,257.48,561,252Z"/><path class="cls-1" d="M595.38,265.63h-19.5l-4.2,9.35h-3.85l16-35h3.65l16,35h-3.9Zm-1.35-3-8.4-18.8-8.4,18.8Z"/><path class="cls-1" d="M636.68,252c0,7.45-5.4,12-14.3,12H613V275h-3.7V240h13.1C631.28,240,636.68,244.48,636.68,252Zm-3.7,0c0-5.6-3.7-8.8-10.7-8.8H613v17.5h9.3C629.28,260.68,633,257.48,633,252Z"/><path class="cls-1" d="M673.93,240v35h-3.65V258.83h-21.9V275h-3.7V240h3.7v15.6h21.9V240Z"/><path class="cls-1" d="M685.33,240H689v35h-3.7Z"/><path class="cls-1" d="M697.33,257.48c0-10.25,7.8-17.81,18.35-17.81,5.1,0,9.7,1.71,12.8,5.11l-2.35,2.35A13.87,13.87,0,0,0,715.78,243c-8.45,0-14.8,6.2-14.8,14.5s6.35,14.5,14.8,14.5a13.73,13.73,0,0,0,10.35-4.2l2.35,2.35c-3.1,3.4-7.7,5.15-12.85,5.15C705.13,275.28,697.33,267.73,697.33,257.48Z"/><path class="cls-1" d="M732.83,270.73l1.45-2.85c2.5,2.45,7,4.25,11.55,4.25,6.55,0,9.4-2.75,9.4-6.2,0-9.6-21.55-3.7-21.55-16.65,0-5.15,4-9.61,12.9-9.61a19.84,19.84,0,0,1,10.85,3.1l-1.25,3a17.93,17.93,0,0,0-9.6-2.9c-6.4,0-9.25,2.85-9.25,6.35,0,9.6,21.55,3.8,21.55,16.55,0,5.15-4.1,9.55-13,9.55C740.58,275.28,735.43,273.43,732.83,270.73Z"/><path class="cls-1" d="M805.08,275.53l-4.85-5a15.44,15.44,0,0,1-11.7,4.75c-6.85,0-11.75-3.6-11.75-8.9,0-4.15,2.4-7.2,8.8-10.9-3.4-3.5-4.4-5.6-4.4-8.3,0-4.45,3.45-7.45,8.85-7.45,5,0,8.15,2.6,8.15,7,0,3.5-2.1,5.95-7.8,9.25l9.6,9.9a21.83,21.83,0,0,0,2.35-6.75l2.9.9a24,24,0,0,1-3.1,8l5,5.15Zm-7-7.15-10.55-10.85c-5.6,3.2-7.3,5.4-7.3,8.5,0,3.8,3.4,6.3,8.45,6.3A12.16,12.16,0,0,0,798.13,268.38Zm-13.65-21.25c0,2.05.75,3.5,3.95,6.75,5.05-2.9,6.7-4.65,6.7-7.15s-1.85-4.35-5.1-4.35C786.53,242.38,784.48,244.33,784.48,247.13Z"/><path class="cls-1" d="M854,252c0,7.45-5.4,12-14.3,12h-9.4V275h-3.7V240h13.1C848.58,240,854,244.48,854,252Zm-3.7,0c0-5.6-3.7-8.8-10.7-8.8h-9.3v17.5h9.3C846.58,260.68,850.28,257.48,850.28,252Z"/><path class="cls-1" d="M885.88,275l-8-11.25a24.92,24.92,0,0,1-2.8.15h-9.4V275H862V240h13.1c8.9,0,14.3,4.5,14.3,12a10.85,10.85,0,0,1-8,11l8.55,12Zm-.2-23c0-5.6-3.7-8.8-10.7-8.8h-9.3v17.55H875C882,260.73,885.68,257.48,885.68,252Z"/><path class="cls-1" d="M898.13,240h3.7v35h-3.7Z"/><path class="cls-1" d="M942.48,240v35h-3.05l-22.51-28.4V275h-3.69V240h3l22.55,28.4V240Z"/><path class="cls-1" d="M960.67,243.18h-12.3V240h28.31v3.2h-12.3V275h-3.71Z"/><path class="cls-1" d="M978.67,270.73l1.45-2.85c2.5,2.45,7,4.25,11.55,4.25,6.56,0,9.41-2.75,9.41-6.2,0-9.6-21.56-3.7-21.56-16.65,0-5.15,4-9.61,12.9-9.61a19.82,19.82,0,0,1,10.85,3.1l-1.25,3a17.93,17.93,0,0,0-9.6-2.9c-6.4,0-9.25,2.85-9.25,6.35,0,9.6,21.56,3.8,21.56,16.55,0,5.15-4.1,9.55-13.06,9.55C986.42,275.28,981.27,273.43,978.67,270.73Z"/><path class="cls-1" d="M874.68,30.15q25.27,0,43.79,19.18T937,97.23q0,29.58-18.66,49.1t-45.17,19.52q-26.79,0-45-19T809.89,97.52q0-30.92,21.06-50.43Q849.22,30.14,874.68,30.15Zm-1.82,7q-17.42,0-27.94,12.92-13.11,16.08-13.11,47.09,0,31.77,13.59,48.9,10.43,13,27.56,13,18.27,0,30.19-14.26t11.92-45q0-33.3-13.11-49.67Q891.43,37.13,872.86,37.13Z"/><path class="cls-1" d="M1005,159.35v3.54h-55.6v-3.54H954q8,0,11.68-4.69Q968,151.6,968,139.92V56.08q0-9.86-1.24-13A8.63,8.63,0,0,0,962.82,39a18.12,18.12,0,0,0-8.8-2.3h-4.59V33.11H1005v3.54h-4.69q-8,0-11.58,4.69-2.4,3.07-2.39,14.74v83.84q0,9.86,1.24,13a8.58,8.58,0,0,0,4,4.12,17.62,17.62,0,0,0,8.71,2.3Z"/><path class="cls-1" d="M1123.22,33.11l1.44,30.44H1121q-1.05-8-2.87-11.49a19.24,19.24,0,0,0-7.9-8.18q-4.92-2.62-13-2.63H1079V140.4q0,12,2.58,14.93,3.65,4,11.2,4h4.5v3.54h-55v-3.54h4.59q8.24,0,11.68-5,2.1-3.06,2.1-14V41.25H1045q-9.09,0-12.92,1.34a17.71,17.71,0,0,0-8.51,7q-3.55,5.18-4.22,14h-3.63l1.53-30.44Z"/><path class="cls-1" d="M1209.74,162.89l-50.15-109.2V140.4q0,12,2.58,14.93,3.54,4,11.2,4H1178v3.54h-45.17v-3.54h4.6c5.48,0,9.38-1.66,11.67-5q2.1-3.06,2.11-14V55.6q0-8.61-1.92-12.44a10.57,10.57,0,0,0-4.92-4.64q-3.6-1.86-11.54-1.87V33.11h36.75l47.09,101.54L1263,33.11h36.75v3.54h-4.5q-8.33,0-11.77,5-2.1,3.06-2.11,14v84.8q0,12,2.68,14.93,3.54,4,11.2,4h4.5v3.54h-55.13v-3.54h4.6q8.32,0,11.67-5,2.12-3.06,2.11-14V53.69l-50,109.2Z"/><path class="cls-1" d="M1393.49,119.44h-50.25l-8.8,20.48q-3.26,7.56-3.25,11.29a6.57,6.57,0,0,0,2.82,5.22q2.82,2.25,12.2,2.92v3.54h-40.86v-3.54q8.13-1.44,10.52-3.74,4.89-4.59,10.82-18.66l45.65-106.8h3.35l45.17,108q5.46,13,9.9,16.89t12.4,4.36v3.54H1392v-3.54q7.76-.39,10.48-2.59a6.68,6.68,0,0,0,2.72-5.36q0-4.2-3.82-13.3Zm-2.68-7.08-22-52.45-22.59,52.45Z"/><path class="cls-1" d="M1535,119.44h-50.24L1476,139.92q-3.26,7.56-3.25,11.29a6.57,6.57,0,0,0,2.82,5.22q2.82,2.25,12.21,2.92v3.54h-40.87v-3.54q8.13-1.44,10.53-3.74,4.88-4.59,10.81-18.66l45.65-106.8h3.35l45.17,108q5.46,13,9.91,16.89t12.39,4.36v3.54h-51.2v-3.54q7.76-.39,10.48-2.59a6.66,6.66,0,0,0,2.73-5.36q0-4.2-3.83-13.3Zm-2.68-7.08-22-52.45-22.58,52.45Z"/><path class="cls-1" d="M80.2,162.89,30.05,53.69V140.4q0,12,2.58,14.93,3.54,4,11.2,4h4.6v3.54H3.25v-3.54h4.6c5.48,0,9.38-1.66,11.67-5q2.11-3.06,2.11-14V55.6q0-8.61-1.92-12.44a10.57,10.57,0,0,0-4.92-4.64q-3.6-1.86-11.54-1.87V33.11H40L87.09,134.65,133.41,33.11h36.75v3.54h-4.5q-8.32,0-11.77,5-2.1,3.06-2.1,14v84.8q0,12,2.67,14.93,3.54,4,11.2,4h4.5v3.54H115v-3.54h4.59q8.33,0,11.67-5,2.12-3.06,2.11-14V53.69l-50,109.2Z"/><path class="cls-1" d="M264,119.44H213.71l-8.81,20.48q-3.26,7.56-3.25,11.29a6.57,6.57,0,0,0,2.82,5.22q2.82,2.25,12.2,2.92v3.54H175.81v-3.54q8.13-1.44,10.52-3.74Q191.22,151,197.15,137L242.8,30.15h3.35l45.17,108q5.46,13,9.91,16.89t12.39,4.36v3.54h-51.2v-3.54q7.75-.39,10.48-2.59a6.66,6.66,0,0,0,2.73-5.36q0-4.2-3.83-13.3Zm-2.68-7.08-22-52.45-22.59,52.45Z"/><path class="cls-1" d="M448.27,162.89H413.63L369.7,102.21q-4.87.2-7.94.19c-.83,0-1.72,0-2.68-.05s-1.95-.07-3-.14v37.71q0,12.26,2.68,15.21,3.63,4.22,10.91,4.22h5.07v3.54h-55.6v-3.54h4.88q8.24,0,11.77-5.36,2-3,2-14.07V56.08c0-8.16-.89-13.24-2.68-15.21q-3.73-4.21-11.1-4.22h-4.88V33.11h47.28q20.67,0,30.48,3a34.86,34.86,0,0,1,16.65,11.1,28.89,28.89,0,0,1,6.84,19.28,30.3,30.3,0,0,1-7.8,20.77q-7.8,8.81-24.16,12.44L415.26,137q9.18,12.83,15.79,17t17.22,5.36ZM356.11,96.18c1.21,0,2.27,0,3.16,0s1.63,0,2.2,0q18.57,0,28-8a25.72,25.72,0,0,0,9.43-20.48q0-12.15-7.61-19.76t-20.14-7.61a83.85,83.85,0,0,0-15,1.82Z"/><path class="cls-1" d="M566.85,30.15l3.35,41h-3.35Q561.78,55.8,553.74,48,542.16,36.85,524,36.85q-24.78,0-37.7,19.61Q475.46,73,475.45,95.89a78.88,78.88,0,0,0,7.18,33.88q7.19,15.31,18.81,22.45a45.15,45.15,0,0,0,23.87,7.13,52.85,52.85,0,0,0,13.88-1.82,55.26,55.26,0,0,0,12.92-5.36V114.65q0-9.77-1.48-12.77a10,10,0,0,0-4.6-4.6q-3.1-1.57-10.95-1.58V92.07h50.24V95.7h-2.39q-7.47,0-10.24,5-1.92,3.54-1.92,14v39.72a97,97,0,0,1-21.72,8.71,95.12,95.12,0,0,1-23.83,2.77q-37.62,0-57.14-24.11A64.43,64.43,0,0,1,453.44,100a69.76,69.76,0,0,1,8.23-32.83,70.28,70.28,0,0,1,26.8-28.71q14.25-8.32,33.69-8.32A66.82,66.82,0,0,1,535,31.29a117.83,117.83,0,0,1,16.41,5.08c3.57,1.34,6,2,7.18,2a3.82,3.82,0,0,0,3.11-1.68c.86-1.11,1.39-3.3,1.58-6.55Z"/><path class="cls-1" d="M648.58,159.35v3.54H593v-3.54h4.59q8,0,11.68-4.69,2.29-3.06,2.29-14.74V56.08q0-9.86-1.24-13A8.65,8.65,0,0,0,606.38,39a18.19,18.19,0,0,0-8.81-2.3H593V33.11h55.6v3.54h-4.69q-7.95,0-11.58,4.69-2.4,3.07-2.39,14.74v83.84q0,9.86,1.24,13a8.58,8.58,0,0,0,4,4.12,17.62,17.62,0,0,0,8.71,2.3Z"/><path class="cls-1" d="M766.77,33.11l1.44,30.44h-3.64q-1.05-8-2.87-11.49a19.27,19.27,0,0,0-7.89-8.18q-4.93-2.62-13-2.63H722.56V140.4q0,12,2.58,14.93,3.65,4,11.2,4h4.5v3.54h-55v-3.54h4.59q8.24,0,11.68-5,2.1-3.06,2.1-14V41.25h-15.6q-9.09,0-12.92,1.34a17.76,17.76,0,0,0-8.51,7q-3.54,5.18-4.21,14H659.3l1.53-30.44Z"/></g></svg>