<svg xmlns="http://www.w3.org/2000/svg" viewBox="0 0 1022.45 392.46"><defs><style>.cls-1{fill:#272525;}</style></defs><g id="logo_-_font_copy_7" data-name="logo - font copy 7"><path class="cls-1" d="M238,374.41h3.55v13.35a19.31,19.31,0,0,1-12.85,4.45c-10.65,0-18.45-7.55-18.45-17.8s7.8-17.8,18.5-17.8c5.3,0,9.9,1.7,13,5.05l-2.3,2.35a14.27,14.27,0,0,0-10.55-4.1c-8.65,0-15,6.15-15,14.5s6.35,14.51,14.95,14.51a15.09,15.09,0,0,0,9.15-2.71Z"/><path class="cls-1" d="M275.93,391.92l-8-11.26a24.92,24.92,0,0,1-2.8.15h-9.4v11.11H252v-35h13.1c8.9,0,14.3,4.5,14.3,12a10.85,10.85,0,0,1-8,11l8.55,12Zm-.2-23c0-5.6-3.7-8.8-10.7-8.8h-9.3v17.55H265C272,377.66,275.73,374.41,275.73,368.91Z"/><path class="cls-1" d="M310.13,382.56h-19.5l-4.2,9.36h-3.85l16-35h3.65l16,35h-3.9Zm-1.35-3-8.4-18.8-8.4,18.8Z"/><path class="cls-1" d="M351.43,368.91c0,7.45-5.4,11.95-14.3,11.95h-9.4v11.06H324v-35h13.1C346,356.91,351.43,361.41,351.43,368.91Zm-3.7,0c0-5.6-3.7-8.8-10.7-8.8h-9.3v17.5H337C344,377.61,347.73,374.41,347.73,368.91Z"/><path class="cls-1" d="M388.68,356.91v35H385V375.76h-21.9v16.16h-3.71v-35h3.71v15.6H385v-15.6Z"/><path class="cls-1" d="M400.07,356.91h3.7v35h-3.7Z"/><path class="cls-1" d="M412.07,374.41c0-10.25,7.8-17.8,18.35-17.8,5.11,0,9.71,1.7,12.81,5.1l-2.35,2.35a13.88,13.88,0,0,0-10.36-4.15c-8.45,0-14.8,6.2-14.8,14.5s6.35,14.51,14.8,14.51a13.75,13.75,0,0,0,10.36-4.21l2.35,2.35c-3.1,3.4-7.7,5.15-12.85,5.15C419.87,392.21,412.07,384.66,412.07,374.41Z"/><path class="cls-1" d="M447.57,387.66l1.45-2.85c2.5,2.45,7,4.25,11.55,4.25,6.56,0,9.4-2.75,9.4-6.2,0-9.6-21.55-3.7-21.55-16.65,0-5.15,4-9.6,12.9-9.6a19.73,19.73,0,0,1,10.85,3.1l-1.25,3a18,18,0,0,0-9.6-2.9c-6.4,0-9.25,2.85-9.25,6.35,0,9.6,21.56,3.8,21.56,16.55,0,5.15-4.11,9.55-13.06,9.55C455.32,392.21,450.17,390.36,447.57,387.66Z"/><path class="cls-1" d="M519.82,392.46l-4.85-5a15.44,15.44,0,0,1-11.7,4.75c-6.85,0-11.75-3.6-11.75-8.9,0-4.15,2.4-7.2,8.8-10.9-3.4-3.5-4.4-5.6-4.4-8.3,0-4.45,3.45-7.45,8.85-7.45,5,0,8.15,2.6,8.15,6.95,0,3.5-2.1,5.95-7.8,9.25l9.6,9.9a21.83,21.83,0,0,0,2.35-6.75l2.9.9a24,24,0,0,1-3.1,8l5,5.15Zm-7-7.15-10.55-10.85c-5.6,3.2-7.3,5.4-7.3,8.5,0,3.8,3.4,6.3,8.45,6.3A12.16,12.16,0,0,0,512.87,385.31Zm-13.65-21.25c0,2.05.75,3.5,3.95,6.75,5.05-2.9,6.7-4.65,6.7-7.15s-1.85-4.35-5.1-4.35C501.27,359.31,499.22,361.26,499.22,364.06Z"/><path class="cls-1" d="M568.72,368.91c0,7.45-5.4,11.95-14.3,11.95H545v11.06h-3.7v-35h13.1C563.32,356.91,568.72,361.41,568.72,368.91Zm-3.7,0c0-5.6-3.7-8.8-10.7-8.8H545v17.5h9.3C561.32,377.61,565,374.41,565,368.91Z"/><path class="cls-1" d="M600.62,391.92l-8-11.26a24.92,24.92,0,0,1-2.8.15h-9.4v11.11h-3.7v-35h13.1c8.9,0,14.3,4.5,14.3,12a10.85,10.85,0,0,1-8,11l8.55,12Zm-.2-23c0-5.6-3.7-8.8-10.7-8.8h-9.3v17.55h9.3C596.72,377.66,600.42,374.41,600.42,368.91Z"/><path class="cls-1" d="M612.87,356.91h3.7v35h-3.7Z"/><path class="cls-1" d="M657.22,356.91v35h-3.05l-22.5-28.41v28.41H628v-35h3l22.55,28.4v-28.4Z"/><path class="cls-1" d="M675.42,360.11h-12.3v-3.2h28.3v3.2h-12.3v31.81h-3.7Z"/><path class="cls-1" d="M693.42,387.66l1.45-2.85c2.5,2.45,7,4.25,11.55,4.25,6.55,0,9.4-2.75,9.4-6.2,0-9.6-21.55-3.7-21.55-16.65,0-5.15,4-9.6,12.9-9.6a19.76,19.76,0,0,1,10.85,3.1l-1.25,3a18,18,0,0,0-9.6-2.9c-6.4,0-9.25,2.85-9.25,6.35,0,9.6,21.55,3.8,21.55,16.55,0,5.15-4.1,9.55-13.05,9.55C701.17,392.21,696,390.36,693.42,387.66Z"/><path class="cls-1" d="M312.43,169q25.26,0,43.78,19.19t18.52,47.9q0,29.57-18.66,49.09T310.9,304.71q-26.81,0-45-19t-18.23-49.28q0-30.91,21.05-50.44Q287,169,312.43,169Zm-1.82,7q-17.42,0-27.95,12.92Q269.55,205,269.55,236q0,31.77,13.59,48.91,10.44,13,27.57,13,18.27,0,30.19-14.26t11.91-45q0-33.3-13.11-49.67Q329.17,176,310.61,176Z"/><path class="cls-1" d="M442.78,298.2v3.54H387.17V298.2h4.6q8,0,11.67-4.69,2.3-3.06,2.3-14.74V194.94c0-6.58-.42-10.91-1.25-13a8.6,8.6,0,0,0-3.92-4.12,18.14,18.14,0,0,0-8.8-2.29h-4.6V172h55.61v3.54h-4.69q-7.95,0-11.58,4.69-2.4,3.06-2.4,14.74v83.83q0,9.86,1.25,13a8.52,8.52,0,0,0,4,4.11,17.59,17.59,0,0,0,8.71,2.3Z"/><path class="cls-1" d="M561,172l1.43,30.43h-3.63q-1.07-8-2.87-11.48a19.26,19.26,0,0,0-7.9-8.19q-4.93-2.62-13-2.63H516.75v99.15q0,12,2.59,14.93,3.63,4,11.2,4H535v3.54H480V298.2h4.6c5.48,0,9.38-1.66,11.67-5q2.12-3.06,2.11-14V180.1h-15.6q-9.09,0-12.92,1.34a17.7,17.7,0,0,0-8.52,7q-3.54,5.16-4.21,14h-3.64L455,172Z"/><path class="cls-1" d="M647.48,301.74l-50.14-109.2v86.71q0,12,2.58,14.93,3.54,4,11.2,4h4.59v3.54H570.54V298.2h4.59q8.24,0,11.68-5,2.1-3.06,2.1-14V194.46q0-8.62-1.91-12.44a10.66,10.66,0,0,0-4.93-4.65q-3.59-1.86-11.53-1.86V172h36.75l47.09,101.54L700.7,172h36.75v3.54H733q-8.33,0-11.77,5c-1.41,2.05-2.11,6.7-2.11,14v84.79q0,12,2.68,14.93,3.54,4,11.2,4h4.5v3.54H682.32V298.2h4.59q8.33,0,11.68-5,2.1-3.06,2.11-14V192.54l-50.06,109.2Z"/><path class="cls-1" d="M831.23,258.29H781l-8.8,20.48q-3.26,7.56-3.26,11.29a6.57,6.57,0,0,0,2.82,5.22c1.89,1.5,6,2.47,12.21,2.92v3.54H743.09V298.2q8.13-1.44,10.53-3.73,4.88-4.61,10.81-18.67L810.08,169h3.35l45.18,108q5.45,13,9.9,16.89t12.39,4.36v3.54H829.7V298.2q7.75-.39,10.48-2.58a6.67,6.67,0,0,0,2.73-5.36q0-4.22-3.83-13.31Zm-2.68-7.08-22-52.45L784,251.21Z"/><path class="cls-1" d="M972.78,258.29H922.54l-8.81,20.48q-3.26,7.56-3.25,11.29a6.57,6.57,0,0,0,2.82,5.22q2.82,2.25,12.2,2.92v3.54H884.64V298.2q8.13-1.44,10.52-3.73,4.89-4.61,10.82-18.67L951.63,169H955l45.17,108q5.46,13,9.91,16.89t12.39,4.36v3.54h-51.2V298.2q7.75-.39,10.48-2.58a6.67,6.67,0,0,0,2.73-5.36q0-4.22-3.83-13.31Zm-2.68-7.08-22-52.45L925.5,251.21Z"/><path class="cls-1" d="M77,132.74,26.8,23.54v86.71q0,12,2.58,14.93,3.54,4,11.2,4h4.59v3.54H0V129.2H4.59q8.24,0,11.68-5,2.1-3.06,2.11-14V25.46q0-8.62-1.92-12.44a10.66,10.66,0,0,0-4.93-4.65Q7.95,6.51,0,6.51V3H36.75L83.84,104.51,130.16,3h36.75V6.51h-4.5q-8.32,0-11.77,5c-1.41,2-2.11,6.7-2.11,14v84.79q0,12,2.68,14.93,3.54,4,11.2,4h4.5v3.54H111.78V129.2h4.6q8.33,0,11.67-5,2.1-3.06,2.11-14V23.54L80.1,132.74Z"/><path class="cls-1" d="M260.7,89.29H210.45l-8.8,20.48q-3.26,7.56-3.26,11.29a6.57,6.57,0,0,0,2.82,5.22c1.89,1.5,5.95,2.47,12.21,2.92v3.54H172.55V129.2q8.13-1.44,10.53-3.73,4.88-4.6,10.81-18.67L239.54,0h3.35l45.18,108q5.44,13,9.9,16.89t12.4,4.36v3.54H259.16V129.2q7.75-.39,10.48-2.58a6.67,6.67,0,0,0,2.73-5.36q0-4.22-3.83-13.31ZM258,82.21,236,29.76,213.42,82.21Z"/><path class="cls-1" d="M445,132.74H410.38L366.45,72.06q-4.89.19-7.95.2c-.83,0-1.72,0-2.68-.05s-1.94-.08-3-.15v37.71q0,12.26,2.68,15.22,3.63,4.21,10.91,4.21h5.07v3.54h-55.6V129.2h4.88q8.22,0,11.77-5.36,2-3,2-14.07V25.94q0-12.26-2.68-15.22-3.73-4.22-11.1-4.21h-4.88V3h47.27q20.67,0,30.48,3a34.94,34.94,0,0,1,16.66,11.1,28.91,28.91,0,0,1,6.84,19.29,30.27,30.27,0,0,1-7.8,20.76q-7.8,8.81-24.16,12.45L412,106.8q9.19,12.83,15.79,17T445,129.2ZM352.86,66c1.21,0,2.26,0,3.16,0s1.62,0,2.2,0q18.55,0,28-8a25.74,25.74,0,0,0,9.43-20.48q0-12.15-7.61-19.76t-20.15-7.61a84.59,84.59,0,0,0-15,1.82Z"/><path class="cls-1" d="M563.6,0,567,41H563.6q-5.08-15.32-13.12-23.06Q538.9,6.7,520.72,6.7,495.94,6.7,483,26.32,472.2,42.88,472.2,65.75a78.76,78.76,0,0,0,7.18,33.88q7.17,15.32,18.8,22.44a45.16,45.16,0,0,0,23.88,7.13,52.85,52.85,0,0,0,13.88-1.82A55.44,55.44,0,0,0,548.86,122V84.51q0-9.76-1.49-12.78a10,10,0,0,0-4.59-4.59q-3.1-1.59-11-1.58V61.92h50.25v3.64h-2.4q-7.45,0-10.24,5-1.9,3.54-1.91,14v39.71a97,97,0,0,1-21.73,8.71A95,95,0,0,1,522,135.71q-37.61,0-57.13-24.12a64.43,64.43,0,0,1-14.64-41.73A69.69,69.69,0,0,1,458.42,37,70.33,70.33,0,0,1,485.21,8.33Q499.48,0,518.9,0a66,66,0,0,1,12.87,1.15,117.54,117.54,0,0,1,16.42,5.07q5.35,2,7.18,2a3.82,3.82,0,0,0,3.1-1.67c.87-1.12,1.39-3.31,1.58-6.56Z"/><path class="cls-1" d="M645.33,129.2v3.54H589.72V129.2h4.6q8,0,11.67-4.69,2.29-3.06,2.3-14.74V25.94c0-6.58-.42-10.91-1.25-13a8.6,8.6,0,0,0-3.92-4.12,18.14,18.14,0,0,0-8.8-2.29h-4.6V3h55.61V6.51h-4.69q-7.95,0-11.58,4.69-2.4,3.06-2.4,14.74v83.83q0,9.86,1.25,13a8.52,8.52,0,0,0,4,4.11,17.59,17.59,0,0,0,8.71,2.3Z"/><path class="cls-1" d="M763.52,3,765,33.4h-3.64q-1.05-8-2.87-11.48a19.26,19.26,0,0,0-7.9-8.19q-4.93-2.62-13-2.63H719.3v99.15q0,12,2.59,14.93,3.63,4,11.2,4h4.49v3.54h-55V129.2h4.6c5.48,0,9.38-1.66,11.67-5q2.11-3.06,2.11-14V11.1h-15.6q-9.09,0-12.92,1.34a17.7,17.7,0,0,0-8.52,7q-3.54,5.16-4.21,14H656L657.58,3Z"/></g></svg>