<svg xmlns="http://www.w3.org/2000/svg" viewBox="0 0 1584.67 288.08"><defs><style>.cls-1{fill:#fff;}</style></defs><g id="Layer_12" data-name="Layer 12"><path class="cls-1" d="M59.88,154.35v56.32q0,18.26,4,22.67,5.41,6.27,16.39,6.27h7.42v5.28H4.85v-5.28h7.27q12.26,0,17.54-8,2.85-4.42,2.85-21V85.77q0-18.26-3.85-22.67-5.57-6.27-16.54-6.27H4.85V51.55H75.71q26,0,40.92,5.35a56.32,56.32,0,0,1,25.24,18Q152.13,87.62,152.13,105q0,23.67-15.61,38.49T92.39,158.34a123.54,123.54,0,0,1-15.11-1Q69.15,156.35,59.88,154.35Zm0-8.13q7.56,1.42,13.41,2.14a83.15,83.15,0,0,0,10,.71q14.82,0,25.59-11.47t10.76-29.73a53.47,53.47,0,0,0-5.13-23.31A35.4,35.4,0,0,0,100,68.45,42.51,42.51,0,0,0,78.56,63.1q-7.28,0-18.68,2.71Z"/><path class="cls-1" d="M269.19,47.13q37.63,0,65.23,28.59T362,147.08q0,44.05-27.81,73.14t-67.29,29.09q-39.93,0-67.09-28.38t-27.16-73.42q0-46.06,31.37-75.14Q231.26,47.13,269.19,47.13Zm-2.71,10.41q-26,0-41.63,19.25-19.54,24-19.54,70.15,0,47.33,20.25,72.85,15.54,19.4,41.06,19.39,27.24,0,45-21.24t17.76-67q0-49.62-19.54-74Q294.15,57.54,266.48,57.54Z"/><path class="cls-1" d="M570.6,244.89H519l-65.44-90.4q-7.28.28-11.83.29c-1.24,0-2.57,0-4-.07s-2.9-.12-4.42-.22v56.18q0,18.26,4,22.67,5.41,6.27,16.25,6.27h7.56v5.28H378.26v-5.28h7.27q12.27,0,17.54-8,3-4.42,3-21V85.77q0-18.26-4-22.67-5.56-6.27-16.54-6.27h-7.27V51.55h70.43q30.8,0,45.41,4.49a52,52,0,0,1,24.81,16.54q10.2,12,10.2,28.73a45.17,45.17,0,0,1-11.62,30.94q-11.62,13.13-36,18.53l39.92,55.47q13.68,19.11,23.52,25.38t25.67,8ZM433.29,145.51c1.81,0,3.38,0,4.71.07s2.42.07,3.28.07q27.66,0,41.7-12a38.36,38.36,0,0,0,14-30.52q0-18.1-11.34-29.44t-30-11.33q-8.26,0-22.39,2.71Z"/><path class="cls-1" d="M719.45,51.55l2.14,45.34h-5.42q-1.57-12-4.28-17.11a28.66,28.66,0,0,0-11.76-12.19q-7.35-3.91-19.32-3.92H653.58V211.38q0,17.82,3.85,22.24,5.42,6,16.68,6h6.7v5.28h-82v-5.28h6.84q12.27,0,17.4-7.41,3.13-4.56,3.13-20.82V63.67H603q-13.55,0-19.25,2-7.41,2.7-12.68,10.4t-6.28,20.82h-5.42l2.29-45.34Z"/><path class="cls-1" d="M788.6,62.1v76h35.22q12.1,0,17.75-5.35t7.48-21.17h5.28V177h-5.28q-.13-11.27-2.92-16.54a18.45,18.45,0,0,0-7.7-7.91q-4.92-2.64-14.61-2.64H788.6v60.74q0,14.69,1.85,19.39,1.42,3.57,6,6.13a27,27,0,0,0,13.12,3.42h7v5.28h-83v-5.28h6.85q12,0,17.39-7,3.42-4.56,3.42-22V85.77q0-14.68-1.85-19.39a12.84,12.84,0,0,0-5.84-6.13,26.54,26.54,0,0,0-13.12-3.42h-6.85V51.55H877.43L879.28,94h-5q-3.7-13.55-8.63-19.89A28.33,28.33,0,0,0,853.54,65q-7.2-2.85-22.31-2.85Z"/><path class="cls-1" d="M998.05,47.13q37.63,0,65.23,28.59t27.59,71.36q0,44.05-27.81,73.14t-67.29,29.09q-39.93,0-67.09-28.38t-27.16-73.42q0-46.06,31.37-75.14Q960.12,47.13,998.05,47.13Zm-2.71,10.41q-26,0-41.63,19.25-19.55,24-19.54,70.15,0,47.33,20.25,72.85,15.54,19.4,41.06,19.39,27.22,0,45-21.24t17.75-67q0-49.62-19.53-74Q1023,57.54,995.34,57.54Z"/><path class="cls-1" d="M1269.52,191.42l4.7,1-16.54,52.47H1108v-5.28h7.28q12.26,0,17.53-8,3-4.56,3-21.11V85.77q0-18.1-4-22.67-5.57-6.27-16.54-6.27H1108V51.55h87.55v5.28q-15.4-.15-21.6,2.85t-8.49,7.55q-2.28,4.58-2.28,21.82V210.52q0,11.85,2.28,16.26a10.21,10.21,0,0,0,5.28,4.42q3.55,1.43,22.24,1.42h14.12q22.23,0,31.22-3.27a40.75,40.75,0,0,0,16.4-11.62Q1262.1,209.38,1269.52,191.42Z"/><path class="cls-1" d="M1370.6,239.61v5.28h-82.83v-5.28h6.84q12,0,17.39-7,3.43-4.56,3.43-22V85.77q0-14.68-1.86-19.39a12.84,12.84,0,0,0-5.84-6.13,27.07,27.07,0,0,0-13.12-3.42h-6.84V51.55h82.83v5.28h-7q-11.83,0-17.25,7-3.57,4.56-3.57,22v124.9q0,14.69,1.85,19.39,1.42,3.57,6,6.13a26.24,26.24,0,0,0,13,3.42Z"/><path class="cls-1" d="M1484.52,47.13q37.65,0,65.23,28.59t27.59,71.36q0,44.05-27.8,73.14t-67.3,29.09q-39.91,0-67.08-28.38T1388,147.51q0-46.06,31.37-75.14Q1446.6,47.13,1484.52,47.13Zm-2.71,10.41q-25.95,0-41.63,19.25-19.53,24-19.53,70.15,0,47.33,20.24,72.85,15.54,19.4,41.07,19.39,27.22,0,45-21.24t17.75-67q0-49.62-19.53-74Q1509.47,57.54,1481.81,57.54Z"/></g></svg>